<?xml version="1.0" encoding="utf-8" ?>
<svg baseProfile="full" height="100px" version="1.1" width="100px" xmlns="http://www.w3.org/2000/svg" xmlns:ev="http://www.w3.org/2001/xml-events" xmlns:xlink="http://www.w3.org/1999/xlink"><defs /><rect fill="none" height="100" width="100" x="0" y="0" /><path d="M -1.67,38.68 L 9.92,35.17 L 21.45,36.81 L 34.08,36.34 L 44.32,36.40 L 54.64,34.24 L 64.90,36.51 L 74.62,38.35 L 81.81,41.29 L 94.35,38.05" fill="none" stroke="#f4a261" stroke-linecap="round" stroke-width="2" /><path d="M -1.73,4.96 L 9.95,1.71 L 20.16,2.65 L 30.83,4.94 L 41.04,5.75 L 54.93,4.90 L 66.02,4.47 L 75.55,4.19 L 87.89,2.43 L 97.17,3.57" fill="none" stroke="#f4a261" stroke-linecap="round" stroke-width="2" /><path d="M -2.02,80.61 L 7.77,84.52 L 17.19,82.61 L 28.50,82.26 L 40.48,84.64 L 52.93,81.53 L 65.38,84.13 L 77.62,83.32 L 88.42,81.32 L 98.60,82.76" fill="none" stroke="#f4a261" stroke-linecap="round" stroke-width="2" /><path d="M 0.54,70.99 L 13.96,71.86 L 25.02,73.54 L 38.48,70.55 L 45.66,70.11 L 58.00,70.57 L 69.24,72.70 L 79.91,71.82 L 91.15,70.53 L 99.28,72.09" fill="none" stroke="#f4a261" stroke-linecap="round" stroke-width="2" /><path d="M 2.06,88.66 L 13.43,88.82 L 24.08,89.94 L 36.20,89.01 L 46.93,89.58 L 57.49,86.22 L 70.51,87.84 L 81.18,91.36 L 88.31,89.23 L 99.94,86.75" fill="none" stroke="#f4a261" stroke-linecap="round" stroke-width="2" /><path d="M 0.09,32.19 L 14.90,27.99 L 25.72,30.97 L 37.28,33.37 L 48.34,28.60 L 57.70,29.24 L 70.52,30.24 L 82.76,29.33 L 95.06,27.76 L 104.81,30.19" fill="none" stroke="#f4a261" stroke-linecap="round" stroke-width="2" /><path d="M 0.80,66.56 L 10.54,68.33 L 22.59,64.03 L 33.46,64.21 L 43.98,62.36 L 53.77,66.30 L 64.34,66.47 L 76.29,63.22 L 88.96,65.44 L 100.87,66.34" fill="none" stroke="#f4a261" stroke-linecap="round" stroke-width="2" /><path d="M 0.44,9.86 L 10.48,9.03 L 24.39,9.65 L 36.21,11.26 L 45.53,8.05 L 57.63,7.28 L 67.28,7.08 L 79.57,7.19 L 92.42,8.30 L 102.30,8.93" fill="none" stroke="#f4a261" stroke-linecap="round" stroke-width="2" /><path d="M 1.81,89.02 L 13.73,90.32 L 28.94,88.53 L 40.20,90.37 L 49.20,90.77 L 60.26,88.69 L 69.92,87.82 L 82.50,88.44 L 93.67,90.27 L 104.58,89.34" fill="none" stroke="#f4a261" stroke-linecap="round" stroke-width="2" /><path d="M -1.33,70.38 L 10.02,70.37 L 21.21,70.38 L 30.61,75.38 L 42.26,70.46 L 54.21,71.31 L 66.95,71.03 L 79.64,70.58 L 88.68,69.13 L 98.39,70.74" fill="none" stroke="#f4a261" stroke-linecap="round" stroke-width="2" /><path d="M 0.25,39.90 L 10.07,37.75 L 21.13,38.38 L 31.44,35.65 L 39.86,41.14 L 51.51,40.32 L 62.00,39.60 L 73.23,38.80 L 83.00,37.58 L 93.61,38.22" fill="none" stroke="#f4a261" stroke-linecap="round" stroke-width="2" /><path d="M -0.99,34.94 L 11.40,32.90 L 21.32,30.40 L 32.26,33.67 L 44.13,35.48 L 56.54,33.84 L 65.85,30.02 L 76.46,31.57 L 86.86,34.20 L 96.99,31.23" fill="none" stroke="#f4a261" stroke-linecap="round" stroke-width="2" /><path d="M -0.36,1.25 L 13.56,0.74 L 24.64,1.53 L 34.36,4.96 L 43.53,2.05 L 54.48,2.80 L 62.60,1.14 L 71.76,1.53 L 85.18,2.41 L 98.28,1.63" fill="none" stroke="#f4a261" stroke-linecap="round" stroke-width="2" /><path d="M 2.38,56.66 L 11.63,58.82 L 25.94,58.08 L 34.13,56.51 L 45.01,58.90 L 57.00,58.01 L 68.54,58.77 L 78.71,58.49 L 89.51,56.30 L 99.88,56.71" fill="none" stroke="#f4a261" stroke-linecap="round" stroke-width="2" /><path d="M -2.68,74.28 L 6.60,76.49 L 16.71,74.70 L 29.56,76.34 L 43.00,74.65 L 53.45,74.14 L 63.95,77.93 L 75.46,76.66 L 86.58,72.37 L 99.09,74.39" fill="none" stroke="#f4a261" stroke-linecap="round" stroke-width="2" /><path d="M 1.74,31.63 L 14.04,32.38 L 26.08,33.49 L 38.14,32.02 L 49.23,31.63 L 58.99,33.23 L 70.22,33.23 L 80.31,32.11 L 92.89,32.16 L 103.78,33.21" fill="none" stroke="#f4a261" stroke-linecap="round" stroke-width="2" /><path d="M 1.73,10.39 L 12.13,9.64 L 22.24,9.22 L 35.39,8.62 L 43.45,6.32 L 56.91,7.22 L 67.57,7.97 L 78.68,9.17 L 88.76,8.59 L 99.80,9.96" fill="none" stroke="#f4a261" stroke-linecap="round" stroke-width="2" /><path d="M 0.15,102.58 L 10.10,98.08 L 21.25,98.04 L 33.10,98.40 L 46.39,96.11 L 58.94,98.51 L 73.28,98.16 L 83.24,99.52 L 95.66,99.81 L 107.05,102.11" fill="none" stroke="#f4a261" stroke-linecap="round" stroke-width="2" /><path d="M 0.86,31.46 L 13.42,30.82 L 25.65,31.37 L 38.97,31.37 L 51.14,27.27 L 62.05,29.60 L 73.05,30.79 L 83.74,30.87 L 95.29,31.34 L 104.76,31.41" fill="none" stroke="#f4a261" stroke-linecap="round" stroke-width="2" /><path d="M 0.01,97.67 L 11.19,101.89 L 21.63,100.47 L 33.67,98.85 L 43.18,102.30 L 54.08,100.15 L 65.37,101.74 L 77.25,100.07 L 89.43,103.06 L 98.86,102.60" fill="none" stroke="#f4a261" stroke-linecap="round" stroke-width="2" /></svg>